<svg width="36" height="63" viewBox="0 0 36 63" fill="none" xmlns="http://www.w3.org/2000/svg">
  <g opacity="0.5">
    <path d="M31.0925 8.9998e-07H4.58455C3.98191 -0.000376809 3.38512 0.118139 2.82835 0.348758C2.27159 0.579378 1.76579 0.91757 1.33992 1.34397C0.914057 1.77036 0.576497 2.27659 0.346572 2.83364C0.116648 3.39069 -0.00112201 3.98764 8.05613e-06 4.59027V58.4165C-0.00036841 59.0186 0.117957 59.6149 0.348219 60.1713C0.578481 60.7277 0.916162 61.2333 1.34195 61.6591C1.76774 62.0848 2.27329 62.4225 2.82968 62.6528C3.38607 62.883 3.9824 63.0014 4.58455 63.001H31.0925C33.621 63.001 35.6741 60.945 35.6741 58.4165V4.59027C35.6741 2.05603 33.621 8.9998e-07 31.0925 8.9998e-07ZM13.2038 2.92941H22.6593V5.12862H13.2038V2.92941ZM17.8399 58.468C17.0642 58.4672 16.3204 58.1592 15.7714 57.6112C15.2223 57.0632 14.9128 56.32 14.9105 55.5443C14.9439 54.7905 15.2668 54.0787 15.812 53.5571C16.3571 53.0355 17.0826 52.7444 17.8371 52.7444C18.5916 52.7444 19.317 53.0355 19.8622 53.5571C20.4074 54.0787 20.7303 54.7905 20.7636 55.5443C20.7608 56.9589 19.4464 58.468 17.8399 58.468ZM32.2379 48.4427H3.43627V7.74304H32.2379V48.4427Z" fill="white" />
  </g>
</svg>