<svg width="71" height="70" viewBox="0 0 71 70" fill="none" xmlns="http://www.w3.org/2000/svg">
<rect x="0.5" width="70" height="70" rx="15" fill="#4241C2"/>
<path d="M34.7558 33.1556C34.4304 33.1658 34.2116 33.2029 34.0977 33.2362V35.2134C34.2326 35.2429 34.3988 35.2521 34.6295 35.251C35.4901 35.2483 36.0314 34.8287 36.0314 34.1249C36.0311 33.4926 35.5651 33.1299 34.7558 33.1556Z" fill="white"/>
<path d="M29.0955 33.333C28.8181 33.3415 28.6306 33.3753 28.5332 33.4063V35.2353C28.6488 35.2622 28.7908 35.2708 28.9878 35.2703C29.7227 35.2676 30.1846 34.8806 30.1846 34.2308C30.1846 33.6468 29.7875 33.3112 29.0955 33.333Z" fill="white"/>
<path d="M23.9453 33.5293L23.9295 33.5298C23.8521 33.8749 23.7757 34.3132 23.6908 34.6481L23.3867 35.8686L24.5367 35.8745L24.2089 34.6409C24.115 34.2983 24.022 33.8705 23.9453 33.5293Z" fill="white"/>
<path d="M21.0723 22.3658V47.5729L38.7992 50V47.4101C38.839 47.4128 38.8782 47.416 38.9186 47.416H48.0011C49.0639 47.416 49.9277 46.5513 49.9277 45.4893V24.4342C49.9277 23.3721 49.0639 22.5076 48.0011 22.5076H38.9186C38.8782 22.5076 38.839 22.5115 38.7992 22.5139V20L21.0723 22.3658ZM41.1763 37.8915L42.5014 36.8632L42.3622 36.7799L42.0834 34.8919L43.622 34.6652L43.6964 35.1704L42.7689 35.307L42.7957 35.4881L43.723 35.3516L43.7963 35.8496L43.1252 35.9483L43.1516 36.1289L43.8227 36.03L43.9006 36.5578L43.2295 36.6567L43.2566 36.8379L43.9275 36.739L43.9355 36.7911C43.842 36.9508 43.7345 37.1362 43.6162 37.34L43.0803 37.4191L43.1066 37.5997L43.4985 37.5422C43.4334 37.6537 43.3665 37.7706 43.2972 37.89L42.6365 37.0379L42.5623 37.0949L42.4099 37.2137L42.1788 37.3927L41.7224 37.7461L41.3112 38.0655L42.3896 39.4556C42.1172 39.9268 41.8611 40.3689 41.6582 40.7213L38.7991 40.8299V31.7586L43.8775 31.5663L44.0382 35.8155L43.8277 34.3884L41.8065 34.6862L42.0912 36.6187L41.42 36.2187L40.8196 36.6831L41.1763 37.8915ZM45.2247 36.6051L45.4929 36.7745L44.077 38.8956L43.8727 38.6317L45.2247 36.6051ZM43.0951 40.3659L42.299 41.5593C42.2938 41.5556 42.2893 41.5512 42.2836 41.5475L42.0321 41.3889L42.8905 40.1025L43.0951 40.3659ZM38.9755 41.2416L38.7992 41.2808V41.2486L38.9755 41.2416ZM25.1235 38.385L24.7102 36.8653L23.2206 36.8342L22.8603 38.2856L21.7036 38.2345L23.2206 32.5848L24.7655 32.5136L26.4626 38.4441L25.1235 38.385ZM31.0212 35.7015C30.5298 36.1638 29.8142 36.3633 28.9972 36.353C28.8183 36.3509 28.6574 36.3396 28.5332 36.32V38.5353L27.2208 38.4775V32.4812C27.624 32.3907 28.1981 32.3095 29.0233 32.2708C29.8784 32.2305 30.501 32.3717 30.9257 32.6955C31.3359 33.0039 31.6154 33.5325 31.6154 34.1662C31.6156 34.8004 31.4034 35.3387 31.0212 35.7015ZM37.0124 35.7176C36.4356 36.2181 35.5963 36.4339 34.6396 36.4221C34.4298 36.4197 34.2418 36.4073 34.0971 36.3858V38.7801L32.566 38.7129V32.241C33.0358 32.1419 33.7057 32.0516 34.6704 32.0062C35.6719 31.9594 36.4017 32.1094 36.9008 32.459C37.383 32.7923 37.712 33.3645 37.712 34.0523C37.7123 34.7398 37.462 35.3242 37.0124 35.7176ZM38.9186 23.6088H48.0011C48.4564 23.6088 48.8268 23.9793 48.8268 24.4345V45.4893C48.8268 45.9447 48.4564 46.315 48.0011 46.315H38.9186C38.8777 46.315 38.8385 46.3094 38.7992 46.3032V41.7098L41.2897 41.154L41.4107 41.1489C41.2865 41.3625 41.2131 41.4894 41.2131 41.4894L41.0626 41.727C40.9916 41.8399 41.0252 41.9899 41.1381 42.0609L41.7246 42.432C41.838 42.5035 41.9874 42.4696 42.0592 42.3562L42.3277 41.9315C42.4476 41.7528 42.6473 41.455 42.8895 41.0925L43.6367 41.0642L43.7339 41.1894C43.849 41.3378 44.0247 41.3948 44.1263 41.3163L44.4924 41.0322L44.6548 41.0263L44.65 40.9102L45.0843 40.5729C45.1858 40.4947 45.1745 40.3103 45.0595 40.162L44.7951 39.8212L43.47 40.8489L43.4964 40.8825C43.44 40.8363 43.3878 40.785 43.348 40.7366C43.3265 40.71 43.3071 40.6847 43.2878 40.6592L43.1771 40.6638C43.2002 40.6293 43.2227 40.5955 43.2464 40.5606L43.2689 40.5899L43.6799 40.2708L44.1362 39.9166L44.3674 39.7375L44.4808 39.6499L44.5902 39.5644C44.5932 39.5639 44.5958 39.5617 44.5983 39.5607L44.5617 38.5933C45.1106 37.7717 45.5524 37.1094 45.6008 37.0328C45.7379 36.8167 45.8352 36.2292 45.8352 36.2292L44.9219 35.6521C44.9219 35.6521 44.6617 35.8214 44.4639 36.0005L44.2795 31.1319L38.7991 31.3397V23.6211C38.8382 23.6151 38.8777 23.6088 38.9186 23.6088Z" fill="white"/>
<path d="M40.7738 36.522L41.277 36.1322L40.5273 35.6855L40.7738 36.522Z" fill="white"/>
<path d="M45.9596 36.0091C46.9465 36.0333 47.5776 35.0098 47.5776 35.0098C48.45 33.4514 47.0785 32.7988 47.0785 32.7988C46.9357 33.3305 45.9905 33.5692 45.9905 33.5692C44.911 33.8252 45.0465 35.4324 45.0465 35.4324L45.9596 36.0091ZM47.5284 34.4218C47.5284 34.4218 47.4177 35.3336 46.2113 35.8059L45.9055 35.6833C45.9055 35.6833 46.3955 35.8887 47.5284 34.4218Z" fill="white"/>
</svg>
