<svg width="17" height="17" viewBox="0 0 17 17" fill="none" xmlns="http://www.w3.org/2000/svg">
  <path fill-rule="evenodd" clip-rule="evenodd" d="M8.99413 0.420151C8.74399 0.170019 8.33308 0.160704 8.07926 0.407089L7.78313 0.69454C7.52391 0.946161 7.52082 1.36126 7.77627 1.61671L13.5298 7.37026C13.6317 7.4722 13.5595 7.64651 13.4153 7.64651L0.646812 7.64651C0.289318 7.64651 -0.000488281 7.93632 -0.000488281 8.29381V8.70668C-0.000488281 9.06417 0.289318 9.35398 0.646811 9.35398L13.4153 9.35398C13.5595 9.35398 13.6317 9.52829 13.5298 9.63023L7.78735 15.3727C7.53456 15.6255 7.53456 16.0353 7.78736 16.2881L8.07916 16.5799C8.33194 16.8327 8.74224 16.8322 8.99502 16.5794C11.7453 13.8292 13.9765 11.598 16.6162 8.95829C16.869 8.70551 16.8657 8.29173 16.6129 8.03895C13.9595 5.3855 15.6295 7.05554 8.99413 0.420151Z" fill="white"/>
</svg>
