<svg width="40" height="39" viewBox="0 0 40 39" fill="none" xmlns="http://www.w3.org/2000/svg">
  <path fill-rule="evenodd" clip-rule="evenodd" d="M3.89248 0.126705C2.7995 0.128871 1.88313 1.0081 1.86904 2.10098L1.85261 3.37601C1.83823 4.49212 2.7402 5.404 3.8564 5.40179L28.9968 5.35207C29.4423 5.35119 29.6664 5.88931 29.3521 6.20492L1.51086 34.1567C0.731357 34.9393 0.73387 36.2056 1.51646 36.9851L2.42029 37.8854C3.20288 38.6649 4.46921 38.6624 5.24871 37.8798L33.0899 9.92798C33.4043 9.61238 33.9433 9.83439 33.9442 10.2798L33.994 35.3719C33.9962 36.4764 34.8934 37.3701 35.998 37.3679L37.273 37.3653C38.3776 37.3631 39.2712 36.4639 39.269 35.3594C39.2452 23.3419 39.2259 13.5926 39.203 2.05821C39.2008 0.953645 38.2879 0.0585364 37.1834 0.0607261C25.5889 0.0837058 32.8863 0.0692421 3.89248 0.126705Z" fill="#FF2E2E" />
</svg>