<svg width="177" height="50" viewBox="0 0 177 50" fill="none" xmlns="http://www.w3.org/2000/svg">
<path d="M155.556 43.4282C154.77 44.3977 153.736 43.9276 152.781 43.7572C149.855 43.2313 146.942 42.6349 144.023 42.065C142.736 41.8123 142.342 41.3452 142.356 39.885C142.384 37.1733 142.492 34.4615 142.503 31.7498C142.536 24.3697 142.536 16.9895 142.55 9.6094C142.553 7.81138 143.027 7.27373 144.697 7.04163C146.306 6.81835 147.91 6.57156 149.511 6.29245C150.92 6.0486 151.677 6.69201 151.68 8.24325C151.685 16.1375 151.699 24.0318 151.666 31.9261C151.661 32.9808 151.808 33.4979 152.984 33.5508C154.096 33.6007 155.417 33.5096 156.158 34.911C156.255 33.9856 156.377 33.0631 156.449 32.1347C156.748 28.3447 157.009 24.5489 157.328 20.7589C157.786 15.3325 158.28 9.90907 158.763 4.48561C158.846 3.56016 159.348 3.02839 160.202 2.86093C163.393 2.23514 166.583 1.6123 169.773 0.983575C170.991 0.742663 171.724 1.22449 171.879 2.53481C172.251 5.69017 172.567 8.85141 172.897 12.0126C173.205 14.9565 173.505 17.9003 173.81 20.8441C174.126 23.8967 174.445 26.9492 174.764 29.9988C175.158 33.777 175.56 37.5552 175.946 41.3334C176.124 43.0785 176.254 44.8296 176.443 46.5718C176.592 47.9585 175.452 48.8487 174.254 48.4756C171.768 47.6999 169.246 47.0595 166.736 46.3779C165.831 46.1311 165.393 45.5376 165.41 44.5534C165.415 44.239 165.41 43.9247 165.29 43.5956C165.199 43.8982 165.121 44.2067 165.013 44.5005C164.683 45.4054 164.086 45.8343 163.154 45.6169C161.096 45.1351 159.037 44.6709 156.987 44.1509C156.535 44.0363 156.13 43.7249 155.558 43.4282H155.556ZM166.536 37.0528C166.655 39.3356 166.797 41.5244 166.866 43.719C166.891 44.4564 167.069 44.8413 167.815 44.9853C168.866 45.188 169.893 45.5494 170.933 45.8255C172.187 46.1605 173.446 46.4807 174.881 46.8538C173.355 31.9702 171.851 17.3039 170.342 2.56419C167.08 3.20467 163.948 3.80401 160.829 4.46505C160.585 4.51793 160.28 4.99975 160.252 5.3053C159.928 8.81028 159.653 12.3182 159.362 15.8261C158.829 22.222 158.294 28.615 157.764 35.0109C157.559 37.4847 157.359 39.9555 157.153 42.4792C159.306 43.0022 161.356 43.4987 163.49 44.0187C163.648 41.636 163.798 39.3562 163.95 37.0499H166.539L166.536 37.0528ZM144.12 40.4226C147.474 41.0455 150.867 41.6742 154.324 42.3147V35.3987C153.306 35.2577 152.318 35.0638 151.322 34.9992C150.423 34.9404 150.118 34.6026 150.124 33.589C150.168 25.4743 150.149 17.3568 150.149 9.24216C150.149 8.82203 150.149 8.4019 150.149 7.90245C148.071 8.22269 146.165 8.51648 144.12 8.83084V40.4226Z" fill="#B5AFB9"/>
<path d="M70.1175 25.3309C67.2213 23.8502 65.7898 21.3706 65.7149 18.2857C64.3694 18.3915 63.0627 18.4914 61.6728 18.6001V20.0103C62.4135 20.0103 63.1626 19.9956 63.9116 20.0132C64.8521 20.0367 65.4901 20.6361 65.5207 21.635C65.5678 23.1745 65.5512 24.7198 65.5262 26.2593C65.5068 27.364 64.7633 27.7459 63.8839 27.9016C63.5121 27.9663 63.1154 27.9663 62.7437 27.9075C61.7588 27.7518 61.462 28.2043 61.548 29.1973C61.5951 29.7526 61.7422 29.9935 62.2859 29.9729C63.0488 29.9435 63.8117 29.9494 64.5747 29.9729C65.8147 30.0111 66.3779 30.6251 66.3862 31.9355C66.3945 33.331 66.4001 34.7265 66.3834 36.1191C66.3696 37.1209 65.8092 37.779 64.8687 37.8525C62.7326 38.017 60.5937 38.161 58.4547 38.2814C56.6238 38.3843 54.7928 38.4695 52.959 38.5165C51.8382 38.5458 51.2085 37.9083 51.2057 36.7126C51.1918 28.3071 51.1918 19.8987 51.2057 11.4932C51.2057 10.318 51.8688 9.62465 52.9895 9.70103C55.9191 9.90669 58.8404 10.1917 61.7671 10.4385C62.4552 10.4972 63.1459 10.5384 63.8395 10.5648C65.2765 10.6236 65.9312 11.3081 65.9451 12.8064C65.9534 13.7407 65.9451 14.675 65.9451 15.9442C67.5292 12.2688 70.3117 11.2023 73.5048 10.7469C76.071 10.3826 78.5373 10.7087 80.9425 11.6313C84.1606 12.8652 85.6282 15.9324 85.2315 19.5285C85.1122 20.6126 84.5102 21.0827 83.4282 21.1032C82.46 21.1209 81.489 21.1062 80.2157 21.1062C81.0895 21.6908 81.7082 22.1903 82.3934 22.5516C84.4519 23.6328 85.6282 25.422 85.9971 27.7459C86.5603 31.2803 85.8362 34.5062 82.9233 36.1543C81.6499 36.8741 80.1325 37.2267 78.6871 37.4647C76.2458 37.8642 73.7712 37.7408 71.3854 37.0475C68.306 36.1514 66.8023 34.0361 66.6026 30.5458C66.5499 29.6321 66.561 28.7096 66.5887 27.7929C66.6248 26.606 67.2351 26.0037 68.3531 25.9832C68.9413 25.9714 69.5322 25.9685 70.1203 25.9626C70.3589 25.942 70.5947 25.9185 71.1024 25.8745C70.5975 25.5895 70.3589 25.4573 70.1203 25.3221L70.1175 25.3309ZM83.5225 19.3786C83.9942 16.332 82.768 13.9846 80.1602 13.1002C77.1835 12.0896 74.1596 12.0044 71.1579 12.9974C69.1771 13.6526 67.6901 14.9071 67.4155 17.2369C67.1131 19.8135 67.8399 21.9582 70.0371 23.3508C71.1079 24.0294 72.2454 24.5965 73.269 25.3427C74.5452 26.274 75.7825 27.2847 76.9504 28.3658C77.8715 29.2179 77.8631 30.44 77.4692 31.53C77.2861 32.0324 76.6203 32.6259 76.1514 32.6435C75.6771 32.6611 75.1139 32.0912 74.72 31.6475C74.498 31.3978 74.4952 30.8925 74.462 30.4959C74.3898 29.5939 74.3621 28.689 74.3149 27.7547H68.1146C68.1922 29.0034 68.2283 30.1697 68.3476 31.3244C68.5667 33.4456 69.6459 34.8323 71.6156 35.3905C74.9474 36.3365 78.2765 36.3218 81.5029 35.0085C82.3796 34.6531 83.2701 33.8774 83.775 33.0372C85.5588 30.0552 84.4935 25.8245 81.6333 24.0294C79.6969 22.8131 77.7522 21.6056 75.7853 20.4481C74.6506 19.7782 74.1124 18.8322 74.29 17.469C74.3926 16.6875 74.5507 15.8942 75.5189 15.8502C76.3013 15.8149 76.8977 16.5259 76.9449 17.5454C76.9726 18.1506 76.9504 18.7587 76.9504 19.3757H83.5253L83.5225 19.3786ZM52.8841 11.4168V36.8859C56.9234 36.6479 60.8572 36.4188 64.8354 36.1837V31.7034H60.036V26.1712H63.9033V21.6291H60.0888V16.8726H64.2612V12.307C60.4522 12.0073 56.6987 11.7135 52.8813 11.4168H52.8841Z" fill="#B5AFB9"/>
<path d="M11.2666 22.323V26.4039C13.0893 26.4039 14.8842 26.4009 16.6791 26.4039C19.6725 26.4127 19.8139 26.5096 19.7446 29.6855C19.6891 32.2768 19.6974 34.9004 19.309 37.4476C18.3797 43.585 13.2751 47.801 7.39102 47.5453C3.51822 47.3779 0.544258 44.3988 0.452709 40.3826C0.261288 32.2122 0.105933 24.0388 0.0615454 15.8684C0.0449001 13.1361 0.236321 10.3714 0.638582 7.67441C1.24614 3.59947 4.22009 1.15216 8.15393 1.34019C11.3304 1.49296 14.1823 2.63582 16.4072 5.14483C18.2465 7.21903 19.273 9.75742 19.5171 12.5455C19.7557 15.2749 19.7113 18.0307 19.7529 20.7777C19.7668 21.7825 19.1537 22.4112 18.2105 22.4552C16.6208 22.5316 15.034 22.6168 13.4444 22.6227C12.748 22.6227 12.0489 22.4347 11.2694 22.3201L11.2666 22.323ZM18.0801 20.8306C18.0801 18.2363 18.3048 15.6921 18.0329 13.2066C17.4919 8.27963 15.1893 4.68945 10.3983 3.35856C6.27579 2.21276 2.24208 3.82569 2.01459 9.09932C1.76214 14.9253 1.53465 20.76 1.5291 26.5919C1.52356 31.2103 1.78988 35.8347 2.09227 40.4443C2.30588 43.726 4.49751 45.7532 7.60741 45.8707C12.1183 46.0411 15.9384 43.206 17.4032 38.7021C18.4712 35.4175 18.2077 32.033 18.216 28.669C18.216 28.4575 17.8914 28.0638 17.7083 28.0609C16.0216 28.0138 14.3321 28.0315 12.5843 28.0315C12.5649 28.4516 12.54 28.81 12.5372 29.1685C12.5261 31.4806 12.5344 33.7957 12.5039 36.1079C12.4956 36.6514 12.4068 37.2038 12.2792 37.7297C12.1016 38.4553 11.5912 38.9754 10.9115 38.7197C10.4593 38.5493 10.0931 37.9676 9.81846 37.4887C9.66033 37.2126 9.74633 36.7719 9.74633 36.4076C9.74633 28.4398 9.74633 20.4721 9.74633 12.5044C9.74633 10.821 10.0931 10.1511 10.9781 10.1041C11.9324 10.0512 12.4651 10.8415 12.4956 12.5367C12.54 14.9223 12.5261 17.3109 12.5372 19.6965C12.5372 20.0814 12.5372 20.4663 12.5372 20.8306H18.0856H18.0801Z" fill="#B5AFB9"/>
<path d="M131.747 23.8879V26.6525C132.399 26.4997 133.068 26.2294 133.742 26.2118C135.856 26.153 137.972 26.2177 140.086 26.1795C141.049 26.1619 141.712 26.5996 141.776 27.5633C141.978 30.6804 142.078 33.8182 140.547 36.665C139.143 39.2769 136.949 40.7253 134.139 40.9016C132.352 41.0132 130.526 40.9662 128.757 40.7018C125.289 40.1876 122.545 37.188 122.171 33.492C121.935 31.1681 121.951 28.8089 121.924 26.4674C121.888 23.5765 122.015 20.6826 121.91 17.7946C121.727 12.8118 124.232 10.1412 128.182 8.77506C131.675 7.56756 135.043 8.16396 138.203 9.9708C140.336 11.1901 141.404 13.323 141.648 15.8085C141.856 17.915 141.837 20.0509 141.851 22.1751C141.859 23.6705 141.285 24.2228 139.901 24.2257C137.959 24.2287 136.017 24.2522 134.075 24.2052C133.312 24.1876 132.549 24.0025 131.744 23.8908L131.747 23.8879ZM140.209 22.5834C140.209 20.471 140.328 18.4468 140.178 16.4461C140 14.0957 139.024 12.1743 136.891 11.0843C133.134 9.15993 129.508 9.44785 126.029 11.807C124.518 12.8324 123.594 14.3307 123.585 16.2874C123.56 21.5698 123.522 26.8552 123.602 32.1377C123.66 35.766 125.88 38.607 129.139 39.1035C130.968 39.3826 132.879 39.3415 134.721 39.127C136.988 38.8626 138.536 37.3584 139.49 35.1726C140.505 32.8428 140.236 30.3808 140.253 27.8806H133.156C133.156 28.5063 133.173 29.0528 133.154 29.5934C133.101 30.983 133.131 32.3903 132.907 33.7476C132.829 34.2207 132.091 34.8993 131.664 34.8905C131.151 34.8788 130.499 34.3411 130.185 33.8358C129.894 33.3628 129.891 32.6371 129.891 32.0231C129.886 26.9198 129.908 21.8166 129.927 16.7163C129.927 16.3873 129.961 16.0553 130.008 15.7321C130.124 14.933 130.604 14.4953 131.339 14.4247C132.119 14.3513 132.704 14.7273 132.935 15.5265C133.073 16.0083 133.118 16.5342 133.123 17.0425C133.145 18.8669 133.131 20.6884 133.131 22.5834H140.206H140.209Z" fill="#B5AFB9"/>
<path d="M40.564 35.487C40.564 36.5505 40.5695 37.6141 40.564 38.6747C40.5556 39.703 40.0785 40.3346 39.1131 40.5021C37.0379 40.8605 34.9601 41.2101 32.8794 41.5421C32.0555 41.6743 31.1843 40.9163 31.0401 39.9732C30.9957 39.6853 31.0207 39.3886 31.0207 39.0948C31.0207 29.0411 31.0207 18.9875 31.0207 8.93379C31.0207 6.91248 31.6615 6.31608 33.5424 6.5805C35.2181 6.81553 36.8937 7.05351 38.5693 7.28267C39.5514 7.41781 40.2144 7.92314 40.5307 8.96317C40.8747 10.0972 41.2964 11.2048 41.8346 12.2919C41.8346 11.4986 41.8151 10.7054 41.8401 9.91507C41.8678 8.90735 42.3728 8.26981 43.3326 8.34914C45.3606 8.5166 47.383 8.76046 49.4026 9.03662C50.196 9.14533 50.5706 9.75642 50.5761 10.6025C50.6316 19.4781 50.6954 28.3507 50.737 37.2263C50.7426 38.278 50.0601 39.0625 49.0947 39.1594C47.3081 39.3416 45.5159 39.4532 43.7293 39.6324C42.6557 39.7411 42.0343 39.2329 41.6958 38.1929C41.3962 37.2674 41.0578 36.3596 40.736 35.4429C40.6805 35.4576 40.625 35.4723 40.5723 35.487H40.564ZM32.7046 39.8264C34.5661 39.5326 36.3055 39.2094 38.0588 39.0067C38.8467 38.9156 39.0076 38.5601 39.0021 37.805C38.9716 34.2795 38.9882 30.7569 38.991 27.2314C38.991 26.9258 39.0298 26.6203 39.0742 25.9915C39.2656 26.4645 39.3378 26.6232 39.396 26.7848C40.6056 30.2222 41.8013 33.6655 43.0386 37.0882C43.1579 37.4202 43.5573 37.8902 43.807 37.8756C45.5576 37.7845 47.3025 37.5818 49.0947 37.4114C49.0947 33.5098 49.0974 29.7316 49.0947 25.9563C49.0891 21.1821 49.0863 16.4109 49.042 11.6367C49.0392 11.2724 48.7507 10.6349 48.5204 10.5937C46.8642 10.3088 45.1886 10.1442 43.3881 9.92682V21.3907C43.1218 21.188 43.0164 20.9706 42.9387 20.7414C41.6736 17.1307 40.4253 13.5141 39.138 9.91213C39.0132 9.55958 38.6969 9.08657 38.4112 9.03075C36.5414 8.68113 34.6577 8.43434 32.7074 8.14055V39.8146L32.7046 39.8264Z" fill="#B5AFB9"/>
<path d="M119.789 24.4219C120.971 25.6499 121.115 27.4421 121.076 29.3194C121.029 31.5582 121.073 33.7969 121.062 36.0385C121.054 37.9129 120.391 38.5035 118.638 38.336C116.746 38.1538 114.84 38.101 112.956 37.863C109.954 37.4811 106.944 37.4781 103.931 37.4017C102.464 37.3635 101.94 36.7906 101.94 35.2629C101.937 28.1766 101.937 21.0932 101.94 14.0068C101.94 12.5878 102.456 11.9679 103.762 11.9062C107.494 11.7358 111.228 11.5478 114.962 11.4596C118.199 11.3832 120.136 12.9932 120.76 16.3425C121.032 17.7997 121.165 19.3451 121.018 20.8141C120.899 21.9922 120.26 23.1086 119.789 24.4277V24.4219ZM116.518 24.0282C116.89 23.8548 117.203 23.7256 117.503 23.561C118.574 22.9764 119.412 22.1655 119.459 20.8023C119.498 19.633 119.514 18.4431 119.376 17.2856C119.012 14.283 117.603 13.0314 114.762 13.1196C111.957 13.2048 109.153 13.3282 106.348 13.4604C105.396 13.5044 104.445 13.622 103.504 13.7072V35.6595C105.688 35.7653 107.815 35.8652 110.087 35.9739V25.6676C111.683 25.4707 112.39 26.0789 112.412 27.6419C112.446 30.1744 112.407 32.7069 112.448 35.2394C112.454 35.5802 112.737 36.1854 112.937 36.206C115.059 36.4322 117.192 36.5615 119.412 36.726C119.412 33.4884 119.509 30.336 119.345 27.1982C119.303 26.3991 118.482 25.597 117.908 24.9008C117.592 24.5159 117.045 24.3455 116.521 24.0311L116.518 24.0282Z" fill="#B5AFB9"/>
<path d="M20.2188 24.348C20.2188 18.5103 20.2188 12.6755 20.2188 6.83784C20.2188 4.91348 20.94 4.27301 22.7322 4.605C24.7047 4.96931 26.6743 5.33949 28.644 5.71554C29.873 5.95058 30.3557 6.54992 30.3557 7.91019C30.3613 18.8482 30.3613 29.7862 30.3557 40.7242C30.3557 41.9493 29.923 42.5163 28.7717 42.7837C26.8158 43.2361 24.8545 43.6592 22.8903 44.0734C20.8596 44.5024 20.2188 43.9354 20.2188 41.7436C20.2188 36.6052 20.2188 31.4667 20.2188 26.3282C20.2188 25.6672 20.2188 25.0061 20.2188 24.3451V24.348ZM21.9055 42.5986C23.8724 42.1755 25.7616 41.7319 27.6647 41.3705C28.4831 41.2148 28.7716 40.8887 28.7689 39.9397C28.7273 29.51 28.7439 19.0803 28.7439 8.65056C28.7439 8.43021 28.8077 8.17461 28.7245 7.99833C28.608 7.74861 28.4082 7.40486 28.1974 7.36079C26.1306 6.92304 24.0527 6.53817 21.9082 6.12392V42.5986H21.9055Z" fill="#B5AFB9"/>
<path d="M86.3528 24.2573C86.3528 20.8052 86.35 17.3561 86.3528 13.904C86.3528 12.2852 86.8882 11.6946 88.3974 11.6888C91.8985 11.6741 95.3995 11.6741 98.9033 11.6888C100.227 11.6946 100.867 12.3909 100.89 13.7953C100.906 15.0057 100.906 16.2191 100.89 17.4295C100.87 18.7075 100.296 19.3186 99.1059 19.348C98.4484 19.3656 97.7853 19.3098 97.1334 19.3774C96.9142 19.4009 96.7228 19.7094 96.5175 19.8886C96.7145 20.0766 96.8893 20.3939 97.1084 20.4292C97.6161 20.5114 98.146 20.4527 98.6648 20.4585C99.9825 20.4732 100.535 20.9227 100.637 22.3124C100.729 23.5522 100.718 24.8096 100.643 26.0524C100.571 27.2481 99.8965 27.8416 98.7091 27.9151C98.2264 27.9444 97.7132 27.8299 97.2638 27.9621C97.0002 28.0384 96.8282 28.4733 96.6174 28.7465C96.8365 28.9169 97.0446 29.2136 97.2749 29.2313C98.0683 29.293 98.8673 29.243 99.6663 29.2636C100.734 29.29 101.273 29.8042 101.311 30.9411C101.359 32.2985 101.35 33.6588 101.314 35.0161C101.286 36.0826 100.682 36.7465 99.6801 36.7554C95.7962 36.7789 91.9151 36.7818 88.0312 36.7554C86.9437 36.7495 86.3694 36.0561 86.3639 34.8281C86.35 31.3025 86.3583 27.7799 86.3583 24.2544L86.3528 24.2573ZM88.0146 35.0073H99.633V30.7972H95.1276V26.1582H98.9394V22.0333H94.9001V17.6293H99.2168V13.4985H88.0118V35.0043L88.0146 35.0073Z" fill="#B5AFB9"/>
<path d="M89.7254 41.6788C91.4898 41.5437 91.4954 41.5407 92.053 43.1919C92.5357 44.6256 93.0045 46.0652 93.7258 47.5283C94.2169 46.0358 94.7135 44.5433 95.199 43.0479C95.5448 41.9863 96.3003 41.5476 97.4655 41.7317V49.6935C97.0937 49.7112 96.7331 49.7317 96.267 49.7552V44.3377C96.1727 44.3112 96.0812 44.2848 95.9868 44.2554C95.8481 44.652 95.7066 45.0486 95.5735 45.4482C95.1712 46.6586 94.8022 47.8808 94.35 49.0678C94.2418 49.3557 93.859 49.6936 93.5982 49.6994C93.3347 49.7053 92.9185 49.3851 92.8159 49.106C92.2194 47.4813 91.6923 45.8243 90.9738 44.2055V49.6935C90.5272 49.717 90.1665 49.7347 89.7227 49.7582V41.6759L89.7254 41.6788Z" fill="#2E3E5C"/>
<path d="M81.7654 49.6487C80.8138 49.9572 80.2562 49.6487 79.7957 48.7526C79.0051 47.2102 78.084 45.7441 77.0132 44.2664V49.6869H75.7148V41.7485C76.6747 41.3725 77.2407 41.7221 77.7206 42.6446C78.5334 44.2047 79.4656 45.6942 80.5142 47.504V41.6957H81.7626V49.6516L81.7654 49.6487Z" fill="#2E3E5C"/>
<path d="M87.7926 49.7061H83.4121V41.6973H87.8065V42.9224H84.7715V44.9349H87.8065C87.8342 45.3462 87.8564 45.687 87.8869 46.1571H84.7853V48.4193H87.7926V49.7091V49.7061Z" fill="#2E3E5C"/>
<path d="M105.772 49.6228C104.804 49.9137 104.138 49.8167 104.008 48.7062C103.897 47.7367 103.35 47.4517 102.501 47.5839C102.265 47.6221 102.013 47.625 101.777 47.5839C100.962 47.4399 100.462 47.7366 100.315 48.6386C100.157 49.6169 99.6438 50.0136 98.6035 49.6111C99.5162 47.0639 100.404 44.5078 101.358 41.9753C101.591 41.3584 102.793 41.4465 103.031 42.087C103.955 44.5607 104.84 47.0521 105.769 49.6228H105.772ZM102.299 43.3797L102.055 43.362C101.727 44.3668 101.403 45.3687 101.056 46.4322H103.256C102.92 45.3628 102.609 44.3698 102.299 43.3797Z" fill="#2E3E5C"/>
<path d="M107.307 49.6051C107.34 49.135 107.362 48.8236 107.384 48.4828C107.989 48.5738 108.564 48.8118 109.063 48.6914C109.565 48.5709 110.256 48.1743 110.37 47.7483C110.475 47.3517 110.02 46.6642 109.651 46.2793C109.271 45.8856 108.683 45.727 108.208 45.4302C107.412 44.9308 107.035 44.1816 107.207 43.2062C107.379 42.2338 107.989 41.6491 108.883 41.4816C109.418 41.3817 109.987 41.4111 110.536 41.4523C111.291 41.5051 111.496 41.9194 111.119 42.6274C110.569 42.5775 110.009 42.4188 109.487 42.5129C109.107 42.5804 108.577 42.9095 108.486 43.2385C108.4 43.5499 108.713 44.1111 108.999 44.3843C109.374 44.7398 109.903 44.9073 110.356 45.1746C111.404 45.7887 111.89 46.817 111.665 47.9099C111.427 49.0645 110.68 49.7167 109.399 49.7637C108.724 49.7872 108.045 49.6697 107.307 49.6109V49.6051Z" fill="#2E3E5C"/>
<path d="M71.6105 42.8876C69.7823 42.2912 68.3425 42.1795 67.3355 43.6808C66.5448 44.8589 66.5226 46.1722 67.2606 47.3973C68.2399 49.022 69.7268 48.8898 71.2416 48.4785C71.6216 49.3834 71.3081 49.7212 70.4897 49.7712C68.8391 49.874 67.2522 49.7594 66.2507 48.1142C65.3408 46.6158 65.2659 45.0176 66.0676 43.4223C66.8999 41.7682 69.3606 40.8192 70.9364 41.5949C71.2027 41.7271 71.2943 42.2618 71.605 42.8876H71.6105Z" fill="#2E3E5C"/>
<path d="M74.0595 41.6113V49.6848H72.8555V41.6789C73.2133 41.6583 73.574 41.6378 74.0595 41.6113Z" fill="#2E3E5C"/>
<path d="M166.536 37.0521H163.947C163.795 39.3584 163.645 41.6382 163.487 44.0209C161.353 43.5038 159.303 43.0044 157.15 42.4814C157.356 39.9607 157.555 37.4869 157.761 35.0131C158.293 28.6172 158.829 22.2242 159.359 15.8283C159.65 12.3204 159.925 8.80955 160.249 5.30752C160.277 4.99903 160.585 4.51721 160.826 4.46726C163.944 3.80622 167.077 3.20688 170.339 2.56641C171.851 17.3061 173.352 31.9724 174.878 46.856C173.443 46.4829 172.184 46.1627 170.93 45.8277C169.89 45.5486 168.863 45.1902 167.812 44.9875C167.065 44.8435 166.885 44.4587 166.863 43.7212C166.794 41.5266 166.652 39.3378 166.533 37.055L166.536 37.0521ZM165.415 17.2709C165.273 17.2767 165.135 17.2826 164.993 17.2885C164.766 21.381 164.541 25.4766 164.308 29.6837C164.996 29.6514 165.495 29.6279 166.119 29.5985C165.881 25.4178 165.648 21.3458 165.415 17.2738V17.2709Z" fill="#2E3E5C"/>
<path d="M144.121 40.4225V8.83073C146.166 8.51637 148.072 8.22258 150.149 7.90234C150.149 8.4018 150.149 8.82192 150.149 9.24205C150.149 17.3567 150.169 25.4742 150.124 33.5889C150.119 34.5995 150.424 34.9403 151.323 34.9991C152.319 35.0637 153.307 35.2576 154.325 35.3986V42.3146C150.865 41.6741 147.475 41.0454 144.121 40.4225Z" fill="#2E3E5C"/>
<path d="M83.5238 19.3768H76.9489C76.9489 18.7569 76.9711 18.1517 76.9434 17.5464C76.8962 16.527 76.2998 15.816 75.5174 15.8512C74.5492 15.8953 74.3911 16.6886 74.2885 17.4701C74.1109 18.8303 74.6491 19.7793 75.7838 20.4491C77.7507 21.6096 79.6954 22.8142 81.6318 24.0305C84.492 25.8256 85.5573 30.0592 83.7735 33.0383C83.2714 33.8785 82.3781 34.6541 81.5014 35.0096C78.275 36.32 74.946 36.3376 71.6141 35.3916C69.6444 34.8334 68.5653 33.4466 68.3461 31.3254C68.2268 30.1708 68.1907 29.0045 68.1131 27.7558H74.3134C74.3606 28.6901 74.3883 29.595 74.4605 30.4969C74.491 30.8936 74.4938 31.3989 74.7185 31.6486C75.1124 32.0893 75.6756 32.6622 76.15 32.6446C76.616 32.6269 77.2846 32.0335 77.4677 31.5311C77.8617 30.4441 77.87 29.2189 76.9489 28.3669C75.781 27.2858 74.5437 26.2751 73.2676 25.3438C72.2439 24.5975 71.1065 24.0276 70.0356 23.3518C67.8357 21.9592 67.1088 19.8116 67.414 17.238C67.6886 14.9082 69.1756 13.6537 71.1564 12.9985C74.1581 12.0055 77.1848 12.0907 80.1587 13.1013C82.7692 13.9856 83.9927 16.3331 83.5211 19.3797L83.5238 19.3768Z" fill="#2E3E5C"/>
<path d="M52.8848 11.416C56.7021 11.7157 60.4528 12.0095 64.2646 12.3062V16.8718H60.0922V21.6283H63.9067V26.1704H60.0395V31.7026H64.8389V36.1829C60.8606 36.415 56.9268 36.6472 52.8875 36.8851V11.416H52.8848Z" fill="#2E3E5C"/>
<path d="M18.08 20.8318H12.5315C12.5315 20.4675 12.5315 20.0826 12.5315 19.6978C12.5204 17.3121 12.5371 14.9236 12.4899 12.538C12.4566 10.8428 11.924 10.0525 10.9724 10.1054C10.0875 10.1524 9.74068 10.8222 9.74068 12.5057C9.74068 20.4734 9.74068 28.4411 9.74068 36.4088C9.74068 36.7761 9.65468 37.2168 9.81281 37.49C10.0875 37.9689 10.4564 38.5506 10.9058 38.721C11.5855 38.9766 12.096 38.4566 12.2735 37.7309C12.4012 37.205 12.4899 36.6497 12.4983 36.1092C12.5288 33.797 12.5204 31.4819 12.5315 29.1697C12.5315 28.8113 12.5593 28.4529 12.5787 28.0327C14.3292 28.0327 16.016 28.0122 17.7027 28.0621C17.8858 28.068 18.2104 28.4587 18.2104 28.6703C18.202 32.0372 18.4628 35.4217 17.3975 38.7034C15.9355 43.2072 12.1126 46.0424 7.60176 45.872C4.49464 45.7545 2.30024 43.7273 2.08662 40.4456C1.78701 35.8359 1.52068 31.2116 1.52346 26.5931C1.52901 20.7613 1.75649 14.9265 2.00895 9.10057C2.23643 3.82695 6.27014 2.21695 10.3926 3.35981C15.1837 4.69071 17.4863 8.28088 18.0273 13.2078C18.2991 15.6904 18.0744 18.2347 18.0744 20.8318H18.08Z" fill="#2E3E5C"/>
<path d="M140.208 22.5828H133.134C133.134 20.6879 133.147 18.8634 133.125 17.0419C133.12 16.5336 133.075 16.0077 132.937 15.5259C132.706 14.7267 132.121 14.3478 131.341 14.4241C130.606 14.4947 130.129 14.9324 130.01 15.7315C129.963 16.0576 129.929 16.3867 129.929 16.7157C129.91 21.819 129.888 26.9222 129.893 32.0225C129.893 32.6365 129.893 33.3622 130.187 33.8352C130.501 34.3405 131.153 34.8782 131.666 34.8899C132.09 34.8987 132.831 34.2201 132.909 33.747C133.134 32.3897 133.1 30.9795 133.156 29.5928C133.178 29.0522 133.158 28.5057 133.158 27.88H140.255C140.236 30.3802 140.507 32.8392 139.492 35.172C138.538 37.3578 136.987 38.8591 134.723 39.1264C132.881 39.3409 130.97 39.382 129.141 39.1029C125.882 38.6064 123.662 35.7654 123.604 32.1371C123.521 26.8546 123.562 21.5692 123.587 16.2868C123.596 14.3301 124.52 12.8318 126.032 11.8064C129.51 9.44725 133.136 9.15933 136.893 11.0837C139.026 12.1766 140.002 14.098 140.18 16.4455C140.333 18.4462 140.211 20.4704 140.211 22.5828H140.208Z" fill="#2E3E5C"/>
<path d="M32.7059 39.8264V8.15234C34.6534 8.4432 36.5399 8.69293 38.4097 9.04254C38.6982 9.09543 39.0117 9.57137 39.1365 9.92393C40.4238 13.5259 41.6749 17.1425 42.9372 20.7532C43.0177 20.9824 43.1231 21.1998 43.3866 21.4025V9.93862C45.1871 10.156 46.8627 10.3206 48.5189 10.6055C48.7464 10.6437 49.0349 11.2842 49.0405 11.6485C49.0849 16.4227 49.0876 21.1939 49.0932 25.9681C49.0987 29.7434 49.0932 33.5216 49.0932 37.4232C47.2983 37.5936 45.5561 37.7963 43.8055 37.8874C43.5558 37.8991 43.1564 37.429 43.0371 37.1C41.7998 33.6743 40.6041 30.234 39.3945 26.7966C39.3363 26.6321 39.2641 26.4734 39.0727 26.0033C39.0283 26.6321 38.9895 26.9376 38.9895 27.2432C38.9839 30.7687 38.9701 34.2942 39.0006 37.8168C39.0061 38.5719 38.8452 38.9274 38.0574 39.0185C36.3041 39.2212 34.5646 39.5444 32.7031 39.8382L32.7059 39.8264Z" fill="#2E3E5C"/>
<path d="M116.517 24.0269C117.041 24.3442 117.587 24.5117 117.904 24.8966C118.478 25.5929 119.299 26.3949 119.341 27.1941C119.507 30.3318 119.407 33.4813 119.407 36.7218C117.188 36.5573 115.057 36.4251 112.932 36.2018C112.733 36.1813 112.45 35.5731 112.444 35.2352C112.402 32.7027 112.444 30.1702 112.408 27.6377C112.386 26.0747 111.678 25.4665 110.083 25.6634V35.9697C107.811 35.861 105.683 35.7582 103.5 35.6554V13.703C104.44 13.6207 105.389 13.5003 106.344 13.4562C109.148 13.324 111.95 13.2006 114.758 13.1154C117.601 13.0302 119.011 14.2788 119.371 17.2814C119.51 18.439 119.496 19.6259 119.455 20.7981C119.407 22.1613 118.57 22.9722 117.499 23.5569C117.199 23.7214 116.886 23.8507 116.514 24.024L116.517 24.0269ZM110.114 22.035C111.099 22.2054 111.728 21.9674 112.133 21.3064C112.71 20.3633 112.68 18.3068 112.045 17.4342C111.559 16.7702 110.921 16.541 110.117 16.8055V22.035H110.114Z" fill="#2E3E5C"/>
<path d="M21.9051 42.5997V6.125C24.0496 6.53925 26.1275 6.92412 28.1943 7.36188C28.4079 7.40594 28.6048 7.74969 28.7214 7.99941C28.8046 8.17569 28.7408 8.43129 28.7408 8.65164C28.7408 19.0814 28.7269 29.5111 28.7658 39.9408C28.7685 40.8898 28.48 41.2159 27.6616 41.3716C25.7585 41.733 23.8693 42.1737 21.9023 42.5997H21.9051Z" fill="#2E3E5C"/>
<path d="M88.0156 35.0078V13.502H99.2207V17.6327H94.904V22.0367H98.9432V26.1616H95.1315V30.8006H99.6368V35.0107H88.0184L88.0156 35.0078Z" fill="#2E3E5C"/>
<path d="M165.416 17.2705C165.649 21.3425 165.882 25.4175 166.12 29.5952C165.496 29.6246 164.997 29.6481 164.309 29.6804C164.542 25.4733 164.769 21.3807 164.994 17.2852C165.135 17.2793 165.274 17.2735 165.416 17.2676V17.2705Z" fill="#B5AFB9"/>
<path d="M110.114 22.0362V16.8066C110.921 16.5422 111.559 16.7714 112.042 17.4353C112.677 18.3079 112.708 20.3645 112.131 21.3076C111.729 21.9686 111.096 22.2066 110.111 22.0362H110.114Z" fill="#B5AFB9"/>
</svg>
