<svg width="71" height="70" viewBox="0 0 71 70" fill="none" xmlns="http://www.w3.org/2000/svg">
<rect x="0.5" width="70" height="70" rx="15" fill="#4241C2"/>
<g clip-path="url(#clip0_1199_7409)">
<path d="M24.25 23.75H46.75C47.0815 23.75 47.3995 23.8817 47.6339 24.1161C47.8683 24.3505 48 24.6685 48 25V45C48 45.3315 47.8683 45.6495 47.6339 45.8839C47.3995 46.1183 47.0815 46.25 46.75 46.25H24.25C23.9185 46.25 23.6005 46.1183 23.3661 45.8839C23.1317 45.6495 23 45.3315 23 45V25C23 24.6685 23.1317 24.3505 23.3661 24.1161C23.6005 23.8817 23.9185 23.75 24.25 23.75ZM41.08 39.42L45.5 35L41.08 30.58L39.3125 32.35L41.965 35L39.3125 37.6513L41.08 39.42ZM29.035 35L31.6875 32.3487L29.92 30.58L25.5 35L29.92 39.42L31.6875 37.65L29.035 35ZM34.555 41.25L39.105 28.75H36.445L31.895 41.25H34.555Z" fill="white"/>
</g>
<defs>
<clipPath id="clip0_1199_7409">
<rect width="30" height="30" fill="white" transform="translate(20.5 20)"/>
</clipPath>
</defs>
</svg>
