<svg width="70" height="61" viewBox="0 0 70 61" fill="none" xmlns="http://www.w3.org/2000/svg">
<path opacity="0.5" d="M62.5 0.5H7.5C3.25 0.5 0 3.75 0 8V53C0 57.25 3.25 60.5 7.5 60.5H62.5C66.75 60.5 70 57.25 70 53V8C70 3.75 66.75 0.5 62.5 0.5ZM17.75 9.5C18 9.25 18 9 18.25 8.75C18.5 8.5 18.75 8.25 19 8.25C20 7.75 21 8 21.75 8.75C22 9 22.25 9.25 22.25 9.5C22.5 9.75 22.5 10.25 22.5 10.5C22.5 11.25 22.25 11.75 21.75 12.25C21.25 12.75 20.75 13 20 13C19.25 13 18.75 12.75 18.25 12.25C17.75 11.75 17.5 11.25 17.5 10.5C17.5 10.25 17.5 9.75 17.75 9.5ZM10 10.5C10 9.75 10.25 9.25 10.75 8.75L11 8.5C11.25 8.5 11.25 8.25 11.5 8.25C11.75 8 11.75 8 12 8C12.25 8 12.75 8 13 8C13.25 8 13.25 8 13.5 8.25C13.75 8.25 13.75 8.5 14 8.5L14.25 8.75C14.5 9 14.75 9.25 14.75 9.5C15 9.75 15 10.25 15 10.5C15 10.75 15 11.25 14.75 11.5C14.75 11.75 14.5 12 14.25 12.25C13.75 12.75 13.25 13 12.5 13C11.75 13 11.25 12.75 10.75 12.25C10.25 11.75 10 11.25 10 10.5ZM24.25 37.25L16.75 44.75C16.25 45.25 15.75 45.5 15 45.5C14.25 45.5 13.75 45.25 13.25 44.75C12.25 43.75 12.25 42.25 13.25 41.25L19 35.5L13.25 29.75C12.25 28.75 12.25 27.25 13.25 26.25C14.25 25.25 15.75 25.25 16.75 26.25L24.25 33.75C25.25 34.75 25.25 36.25 24.25 37.25ZM25.75 12.25C25.5 12 25.25 11.75 25.25 11.5C25 11.25 25 10.75 25 10.5C25 10.25 25 9.75 25.25 9.5C25.5 9.25 25.5 9 25.75 8.75C26.75 7.75 28.25 7.75 29.25 8.75C29.5 9 29.75 9.25 29.75 9.5C30 9.75 30 10.25 30 10.5C30 10.75 30 11.25 29.75 11.5C29.5 11.75 29.5 12 29.25 12.25C28.75 12.75 28.25 13 27.5 13C27.25 13 26.75 13 26.5 12.75C26.25 12.75 26 12.5 25.75 12.25ZM40 45.5H30C28.5 45.5 27.5 44.5 27.5 43C27.5 41.5 28.5 40.5 30 40.5H40C41.5 40.5 42.5 41.5 42.5 43C42.5 44.5 41.5 45.5 40 45.5Z" fill="white"/>
</svg>
