<svg width="48" height="48" viewBox="0 0 48 48" fill="none" xmlns="http://www.w3.org/2000/svg">
<rect width="48" height="48" rx="24" fill="#4241C2"/>
<path d="M28.4059 32.9145V28.3199C28.4059 27.9138 28.3154 27.5287 28.1569 27.1809C28.5359 27.1042 28.915 27.0164 29.2927 26.9048C30.4537 26.562 32.1202 25.1409 32.6127 23.7515C33.1586 22.2096 33.1586 20.6456 32.6127 19.1036L32.6123 19.1032C32.5144 18.8261 32.3655 18.5468 32.1537 18.2449C32.5434 16.7958 32.27 15.5837 32.2571 15.5272L32.0894 14.8086L31.3515 14.8173C31.2826 14.8182 29.7526 14.8463 28.2621 15.7156C26.5369 15.3783 24.7628 15.3783 23.0376 15.7156C21.5476 14.8463 20.0176 14.8182 19.9482 14.8173L19.2094 14.8086L19.0417 15.5272C19.0288 15.5837 18.7554 16.7958 19.1451 18.2449C18.9332 18.5468 18.7844 18.8266 18.6861 19.1036C18.1407 20.6456 18.1407 22.2096 18.6865 23.752C19.1781 25.1409 20.8446 26.562 22.0061 26.9048C22.3838 27.0164 22.7628 27.1042 23.1419 27.1809C22.9777 27.5382 22.8926 27.9267 22.8924 28.3199V28.9085C22.8639 28.925 22.8341 28.9384 22.8065 28.9581C22.6737 29.0551 21.4883 29.8619 20.2772 28.9995C19.8499 28.5648 19.6403 28.2464 19.4382 27.9386C18.9842 27.2494 18.5923 26.7504 17.3302 26.1191C17.1121 26.0101 16.8597 25.9922 16.6284 26.0693C16.3972 26.1464 16.206 26.3123 16.097 26.5303C15.988 26.7484 15.9701 27.0008 16.0472 27.2321C16.1243 27.4634 16.2902 27.6545 16.5082 27.7635C17.423 28.2207 17.5838 28.4642 17.9027 28.9494C18.1393 29.3082 18.4333 29.7553 19.0261 30.348L19.1248 30.4334C19.9022 31.0169 20.7086 31.2251 21.4465 31.2251C21.9399 31.2225 22.4291 31.1344 22.8924 30.9646V32.9186L28.4059 32.9145Z" fill="white"/>
</svg>
