<svg width="48" height="48" viewBox="0 0 48 48" fill="none" xmlns="http://www.w3.org/2000/svg">
<rect width="48" height="48" rx="24" fill="#4241C2"/>
<g clip-path="url(#clip0_1259_1251)">
<path d="M29.6214 15.9648H19.3805C17.5029 15.9648 15.9668 17.501 15.9668 19.3785V29.6195C15.9668 31.497 17.5029 33.0331 19.3805 33.0331H29.6214C31.4989 33.0331 33.0351 31.497 33.0351 29.6195V19.3785C33.0351 17.501 31.4989 15.9648 29.6214 15.9648ZM24.5009 28.766C22.154 28.766 20.2339 26.8459 20.2339 24.499C20.2339 22.1521 22.154 20.2319 24.5009 20.2319C26.8478 20.2319 28.768 22.1521 28.768 24.499C28.768 26.8459 26.8478 28.766 24.5009 28.766ZM29.1947 20.6586C28.7253 20.6586 28.3413 20.2746 28.3413 19.8052C28.3413 19.3358 28.7253 18.9518 29.1947 18.9518C29.6641 18.9518 30.0481 19.3358 30.0481 19.8052C30.0481 20.2746 29.6641 20.6586 29.1947 20.6586Z" fill="white"/>
</g>
<defs>
<clipPath id="clip0_1259_1251">
<rect width="17" height="17" fill="white" transform="translate(16 16)"/>
</clipPath>
</defs>
</svg>
