<svg width="177" height="43" viewBox="0 0 177 43" fill="none" xmlns="http://www.w3.org/2000/svg">
<g clip-path="url(#clip0_1161_10202)">
<path fill-rule="evenodd" clip-rule="evenodd" d="M33.2781 14.0964L33.7256 14.9075L34.156 15.7186L34.5519 16.5489L34.8617 17.3986L35.1716 18.2869L35.4126 19.2139L35.6191 20.1215L35.8085 21.0291L35.9462 21.9754L35.9978 22.9216L36.0495 23.8679V24.7755L35.9978 25.7604L35.8946 26.7066L35.7568 27.6143L35.5675 28.5219L35.3609 29.4488L35.1027 30.3371L34.7757 31.2062L34.4486 32.0752L34.0527 32.9055L33.6224 33.7166L33.1748 34.5277L32.6756 35.2615L32.1248 35.9953L31.5739 36.6712L30.9715 37.3471L30.3346 37.9651L29.6804 38.5637L28.9919 39.0851L28.3206 39.5872L27.5459 40.07L26.823 40.4755L26.0484 40.8618L25.2565 41.1901L24.4819 41.4604L23.6557 41.7115L22.8122 41.9046L22.0031 42.0204L21.1597 42.1363L20.3162 42.1556H19.4727L18.6293 42.0784L17.8202 41.9818L16.9768 41.8273L16.1677 41.5956L15.3415 41.3639L14.5669 41.0742L13.775 40.7073L13.0004 40.3404L12.2774 39.8962L11.5373 39.3941L10.8487 38.892L10.1602 38.332L9.50605 37.714L8.90357 37.0768L8.30109 36.4009L7.75026 35.7057L7.21663 34.9525L6.71744 34.1608H6.75186L6.26988 33.369L5.87397 32.5772L5.49527 31.7082L5.16821 30.8392L4.87558 29.9702L4.61737 29.0626L4.41081 28.155L4.25588 27.228L4.11818 26.2818L4.01489 25.3355L3.98047 24.4086V23.4623L4.03211 22.5161L4.11818 21.5892L4.2731 20.6622L4.42802 19.7353L4.66901 18.8277L4.92722 17.9393L5.25428 17.051L5.59855 16.2013L5.99446 15.3709L6.40759 14.5406L6.85515 13.7874L7.35434 13.015L7.88796 12.2812L8.45602 11.6053L9.05849 10.9101L9.66097 10.2921L10.3323 9.71276L11.0036 9.17204L11.7266 8.66995L12.4496 8.20648L13.2242 7.78164L13.9816 7.41472L14.7734 7.08643L15.5652 6.81608L16.3743 6.58434L17.1833 6.41054L18.0268 6.25605L18.8703 6.15949L19.6965 6.10156L20.5228 6.14018L21.3662 6.19812L22.2097 6.29467L23.0532 6.46847L23.8622 6.66159L24.654 6.91263L25.4803 7.22161L26.2377 7.58853L26.9951 7.97475L27.7697 8.41891L28.4755 8.88238L29.1812 9.40378L29.8698 9.96381L30.4895 10.5625L31.1264 11.219L31.7116 11.8949L32.2625 12.5708L32.7789 13.3433L33.2781 14.0964ZM30.3173 16.3365L29.9214 15.7572L29.4911 15.1585L29.078 14.6371L28.6304 14.0964L28.1312 13.5943L27.632 13.1502L27.0984 12.7253L26.5475 12.3005L25.9967 11.9142L25.4287 11.6053L24.8434 11.277L24.2409 11.0259L23.604 10.7942L22.9671 10.6011L22.3474 10.408L21.7105 10.2921L21.0564 10.2149L20.4195 10.1762L19.7654 10.1569L19.1113 10.2149L18.4571 10.2728L17.8202 10.35L17.1833 10.5045L16.5636 10.7169L15.9267 10.9101L15.3243 11.1611L14.7218 11.4508L14.1365 11.7791L13.5857 12.1267L13.0348 12.5322L12.5012 12.957L12.002 13.4012L11.5028 13.9033L11.0553 14.4054L10.6077 14.9268L10.1946 15.5254L9.83311 16.0855L9.45441 16.7034L9.11013 17.3214L8.83471 17.978L8.5593 18.6539L8.33552 19.3297L8.11174 20.0056L7.95682 20.7202L7.8019 21.4154L7.69861 22.1492L7.61255 22.9023L7.59533 23.5975V24.3314L7.61255 25.0845L7.66419 25.7797L7.76747 26.5328L7.90518 27.228L8.0601 27.9619L8.26666 28.6571L8.50766 29.333L8.76586 30.0089L9.05849 30.6461L9.38555 31.3027L9.72982 31.9207L10.1085 32.5193L10.5044 33.0987L10.952 33.6394L11.3995 34.1608L11.8815 34.6629L12.3807 35.1456L12.8971 35.5512L13.448 35.9567L14.016 36.3429L14.5841 36.6712L15.1865 36.9995L15.789 37.2699L16.4087 37.463L17.0284 37.6754L17.6653 37.8492L18.3194 37.9651L18.9735 38.0616L19.6105 38.0809L20.2646 38.1196L20.9187 38.0809L21.5556 38.0037L22.2097 37.9071L22.8466 37.772L23.4835 37.5789L24.086 37.3471L24.7057 37.1154L25.291 36.8257L25.8762 36.4974L26.4443 36.1498L26.9951 35.7636L27.5287 35.3194L28.0279 34.8753L28.4927 34.3732L28.9747 33.8711L29.4222 33.3304L29.8181 32.7704L30.2141 32.191L30.5755 31.5731L30.8854 30.9551L31.2124 30.2985L31.4706 29.6226L31.7116 28.9467L31.9182 28.2708L32.0731 27.5563L32.2281 26.8418L32.3313 26.108L32.383 25.4128L32.4346 24.6596V23.9258L32.4174 23.192L32.3313 22.4775L32.2281 21.7437L32.1076 21.0291L31.9354 20.3339L31.7289 19.6194L31.5223 18.9435L31.2641 18.2676L30.9715 17.611L30.6616 16.9738L30.3173 16.3365Z" fill="#2E3E5C"/>
<path fill-rule="evenodd" clip-rule="evenodd" d="M31.5554 11.2177L32.003 12.0095L32.4161 12.8399L32.812 13.6896L33.1563 14.5393L33.4489 15.4276L33.6727 16.3352L33.8965 17.2235L34.0686 18.1698L34.2063 19.0967L34.2752 20.0236L34.3096 20.9699V21.9161L34.258 22.8624L34.1719 23.8086L34.0514 24.7163L33.8276 25.6625L33.6211 26.5508L33.3629 27.4585L33.053 28.3275L32.7087 29.2158L32.33 30.0269L31.8825 30.8379L31.4349 31.6297L30.9357 32.4021L30.3849 33.0973L29.8341 33.8119L29.2316 34.4684L28.6291 35.0864L27.9406 35.6657L27.2864 36.2258L26.5807 36.7279L25.8405 37.2106L25.0831 37.6162L24.3085 37.9638L23.5339 38.3307L22.742 38.5817L21.9158 38.8328L21.1067 39.0066L20.2633 39.1418L19.4198 39.2383L18.5763 39.2769H17.7329L16.9238 39.219L16.0804 39.0838L15.2369 38.9486L14.4279 38.7362L13.636 38.4659L12.827 38.1762L12.0524 37.8286L11.2778 37.4424L10.5376 36.9982L9.83181 36.5154L9.10884 35.994L8.43751 35.434L7.76618 34.8354L7.1637 34.1981L6.59565 33.5222L6.04481 32.8077L5.49398 32.0738L5.01199 31.3014L4.56444 30.5096L4.15131 29.6793L3.77261 28.8489L3.42834 27.9606L3.15292 27.0915L2.8775 26.2032L2.67094 25.2763L2.51602 24.33L2.37831 23.4224L2.30945 22.4762L2.25781 21.5299V20.5837L2.30945 19.6567L2.37831 18.7105L2.53323 17.7835L2.72258 16.8759L2.92914 15.9683L3.20456 15.0413L3.51441 14.153L3.85868 13.342L4.25459 12.473L4.66772 11.6812L5.14971 10.8894L5.61447 10.1556L6.16531 9.40247L6.71614 8.70727L7.31862 8.05068L7.95553 7.43272L8.60965 6.85339L9.28098 6.29336L9.29819 6.31267L9.98674 5.81058L10.7269 5.34711L11.4843 4.92226L12.2417 4.53604L13.0336 4.22706L13.8426 3.91808L14.6344 3.68635L15.4607 3.51255L16.2869 3.35805L17.1304 3.28081L17.9739 3.24219L18.8001 3.28081L19.6264 3.33875L20.4698 3.41599L21.3133 3.57048L22.1396 3.7829L22.9142 4.03395L23.7404 4.34293L24.5323 4.69053L25.2897 5.07676L26.0298 5.52091L26.7528 6.02301L27.4414 6.5251L28.1299 7.08512L28.784 7.66446L29.3865 8.32104L29.989 8.99693L30.557 9.71145L31.0734 10.4453L31.5554 11.2177ZM28.5775 13.4771L28.1815 12.8978L27.7856 12.2992L27.3381 11.7391L26.8905 11.237L26.4258 10.7349L25.9266 10.2715L25.3757 9.82732L24.8421 9.40247L24.2568 9.05487L23.706 8.70727L23.1035 8.4176L22.5011 8.14724L21.8641 7.9155L21.2617 7.70308L20.642 7.54859L19.9706 7.43272L19.3165 7.35548L18.6796 7.27823H18.0255L17.3714 7.31686L16.7345 7.37479L16.0804 7.49066L15.4607 7.64515L14.8238 7.81895L14.2213 8.03137L13.5844 8.28242L12.9991 8.5914L12.3966 8.90038L11.8458 9.26729L11.295 9.65351L10.7786 10.0591L10.2794 10.5225L9.78017 11.0053L9.33262 11.5267L8.88506 12.0674L8.48915 12.6274L8.09323 13.2261L7.71454 13.844L7.40469 14.462L7.09484 15.0993L6.81943 15.7559L6.59565 16.4318L6.37187 17.1463L6.21695 17.8415L6.06203 18.556L5.95874 19.2705L5.9071 20.0043L5.85546 20.7382V21.472L5.87268 22.1865L5.95874 22.9203L6.04481 23.6348L6.16531 24.3687L6.35466 25.0832L6.54401 25.7784L6.76779 26.4543L7.0432 27.1495L7.31862 27.7868L7.64568 28.4047L7.98995 29.0227L8.38587 29.6406L8.76457 30.22L9.21212 30.78L9.65968 31.2821L10.1589 31.7649L10.6753 32.2476L11.1917 32.6918L11.7253 33.0973L12.2934 33.4643L12.8442 33.8119L13.4467 34.1015L14.0664 34.3719L14.6861 34.6036L15.2885 34.816L15.9599 34.9512L16.5796 35.0864L17.2337 35.1636L17.8706 35.2216H18.5247L19.196 35.2023L19.8501 35.1443L20.4698 35.0285L21.1067 34.874L21.7437 34.7002L22.3633 34.4877L22.9658 34.2174L23.5855 33.9277L24.1536 33.6381L24.7044 33.2518L25.2552 32.8656L25.7889 32.4601L26.288 31.9773L26.7872 31.5138L27.2348 30.9731L27.6824 30.4517L28.0955 29.8917L28.4742 29.3317L28.8357 28.7137L29.1627 28.0957L29.4726 27.4005L29.7308 26.7633L29.9718 26.0874L30.1783 25.3729L30.3333 24.6583L30.4882 23.9631L30.6087 23.2486L30.6603 22.5148L30.712 21.781V21.0278L30.6775 20.3326L30.6087 19.5988L30.5226 18.8843L30.3849 18.1505L30.2128 17.4359L30.0234 16.7214L29.7824 16.0455L29.5242 15.4083L29.2316 14.7131L28.9217 14.0951L28.5775 13.4771Z" fill="#B1B6C0"/>
<path fill-rule="evenodd" clip-rule="evenodd" d="M29.7664 8.206L30.2139 8.99776L30.627 9.82815L30.9885 10.6778L31.3328 11.5275L31.6599 12.4159L31.8836 13.3428L32.1074 14.2118L32.2796 15.158L32.3828 16.085L32.4689 17.0312L32.5205 17.9775V18.9044L32.4689 19.8507L32.3656 20.7969L32.2279 21.7239L32.0558 22.6508L31.832 23.5391L31.5738 24.4661L31.2639 25.3157L30.9197 26.2041L30.5238 27.0344L30.1106 27.8262L29.6631 28.618L29.1639 29.3904L28.5958 30.0856L28.045 30.8001L27.4425 31.4567L26.8228 32.0747L26.1515 32.654L25.4802 33.214L24.7572 33.7161L24.0342 34.1603L23.294 34.6044L22.5366 34.952L21.7448 35.2803L20.9186 35.5893L20.1439 35.8211L19.3005 35.9949L18.4742 36.1493L17.6307 36.2266L16.7873 36.2652H15.961L15.1176 36.2073L14.2913 36.0914L13.4478 35.9369L12.6388 35.7245L11.8297 35.4541L11.0379 35.1645L10.2461 34.8169L9.48869 34.4306L8.74851 33.9865L8.00832 33.523L7.31978 32.9823L6.64845 32.4223L5.99433 31.8429L5.37464 31.1864L4.77216 30.5105L4.22132 29.7959L3.70491 29.0621L3.20572 28.2897H3.22293L2.75816 27.4979L2.36225 26.6675L1.96634 25.8371L1.63928 24.9681L1.36386 24.0798L1.08844 23.1529L0.881877 22.2839L0.692526 21.3376L0.589244 20.4107L0.485962 19.4644L0.46875 18.5375V17.5913L0.52039 16.645L0.589244 15.6988L0.761382 14.7718L0.916303 13.8642L1.14008 12.9179L1.4155 12.0296L1.72534 11.1606L2.03519 10.2916L2.4311 9.46123L2.87866 8.66947L3.32621 7.87771L3.82541 7.10526L4.35903 6.41006L4.92708 5.69554L5.54677 5.03896L6.14925 4.421L6.80337 3.84167L7.49191 3.28164V3.30095L8.19767 2.79886L8.93786 2.33539L9.66083 1.91055L10.4527 1.54363L11.2445 1.21534L12.0363 0.906359L12.8454 0.674627L13.6716 0.500825L14.5151 0.346336L15.3413 0.26909L16.1676 0.230469H17.0111L17.8545 0.288402L18.6808 0.404269L19.5242 0.558759L20.3505 0.771182L21.1423 1.04154L21.9169 1.33121L22.7088 1.67881L23.4834 2.06503L24.2408 2.50919L24.9465 2.97266L25.6523 3.51338L26.3408 4.0734L26.9777 4.65274L27.5974 5.30932L28.1827 5.98521L28.7335 6.69973L29.2672 7.43355L29.7664 8.206ZM26.754 10.4654L26.3925 9.84746L25.9794 9.28743L25.549 8.72741L25.1015 8.22532L24.6023 7.72322L24.1031 7.25975L23.5867 6.81559L23.0358 6.41006L22.4678 6.04315L21.8997 5.69554L21.3145 5.40588L20.712 5.13552L20.0751 4.90378L19.4554 4.69136L18.8185 4.53687L18.1816 4.421L17.5275 4.34376L16.9078 4.28583H16.2364L15.5823 4.30514L14.9282 4.36307L14.2913 4.47894L13.6716 4.63343L13.0347 4.80723L12.3978 5.01965L11.7953 5.29001L11.1928 5.57968L10.6076 5.90797L10.0567 6.25557L9.50591 6.64179L8.9895 7.04733L8.4903 7.53011L7.99111 7.99358L7.54355 8.53429L7.096 9.0557L6.66566 9.61572L6.26975 10.2144L5.94269 10.7937L5.59841 11.4117L5.30578 12.0876L5.04758 12.7441L4.80658 13.42L4.60002 14.1345L4.42789 14.8491L4.27296 15.5443L4.16968 16.2588L4.10083 16.9926L4.0664 17.7264V18.4603L4.10083 19.1748L4.15247 19.9086L4.25575 20.6231L4.37624 21.3569L4.54838 22.0715L4.75494 22.786L4.99594 23.4619L5.21971 24.0991L5.54677 24.775L5.85662 25.4123L6.20089 26.0303L6.59681 26.6482L6.99272 27.2082L7.44027 27.7683L7.88783 28.2704L8.3526 28.7725L8.85179 29.2359L9.38541 29.6801L9.93625 30.0856L10.4871 30.4525L11.0551 30.8001L11.6748 31.0898L12.2773 31.3602L12.8798 31.5919L13.4995 31.8043L14.1364 31.9588L14.7905 32.0747L15.4618 32.1519L16.0815 32.2099H16.7356L17.407 32.1905L18.0267 32.1326L18.6808 32.0167L19.3177 31.8623L19.9546 31.6884L20.5571 31.476L21.194 31.2057L21.762 30.916L22.3473 30.5877L22.9153 30.2401L23.4834 29.8539L23.9998 29.4483L24.499 28.9656L24.981 28.5021L25.4457 27.9614L25.8933 27.44L26.2892 26.88L26.6851 26.2813L27.0466 25.6633L27.3737 25.084L27.6835 24.4081L27.9417 23.7515L28.1827 23.0756L28.3893 22.3611L28.5442 21.6466L28.7163 20.9514L28.8196 20.2369L28.8713 19.5031L28.8885 18.7692L28.9229 18.0354L28.8885 17.3209L28.8196 16.5871L28.7163 15.8726L28.5786 15.1387L28.4237 14.4242L28.2171 13.729L27.9934 13.0338L27.7352 12.3965L27.4425 11.7206L27.1327 11.1027L26.754 10.4654Z" fill="#5A677D"/>
<path d="M46.7889 32.1622C45.7411 32.1404 44.868 32.0098 44.1695 31.7704C43.4903 31.5309 42.9471 31.1935 42.5396 30.7582C42.1321 30.3011 41.8411 29.746 41.6664 29.093C41.5112 28.4182 41.4336 27.6563 41.4336 26.8073V7.15108L44.9553 6.49805V26.0564C44.9553 26.5352 44.9844 26.9379 45.0426 27.2645C45.1202 27.591 45.2463 27.874 45.421 28.1134C45.5956 28.3311 45.8284 28.5052 46.1195 28.6358C46.43 28.7447 46.818 28.8317 47.2837 28.897L46.7889 32.1622Z" fill="#5A677D"/>
<path d="M53.6848 31.8358H50.1631V14.759H53.6848V31.8358ZM54.0632 9.76332C54.0632 10.5034 53.8498 11.0912 53.4229 11.5265C52.996 11.9619 52.4915 12.1795 51.9094 12.1795C51.3079 12.1795 50.7937 11.9619 50.3669 11.5265C49.94 11.0912 49.7266 10.5034 49.7266 9.76332C49.7266 9.00145 49.94 8.40284 50.3669 7.96749C50.7937 7.53213 51.3079 7.31445 51.9094 7.31445C52.4915 7.31445 52.996 7.53213 53.4229 7.96749C53.8498 8.40284 54.0632 9.00145 54.0632 9.76332Z" fill="#5A677D"/>
<path d="M68.2479 23.2483C68.2479 21.5722 67.9471 20.2444 67.3456 19.2648C66.7635 18.2853 65.8322 17.7955 64.5515 17.7955C63.9694 17.7955 63.4164 17.8935 62.8926 18.0894C62.3881 18.2853 61.9806 18.503 61.6701 18.7424V28.5705C61.9224 28.6358 62.2425 28.7011 62.6306 28.7664C63.0381 28.81 63.5232 28.8317 64.0859 28.8317C65.3859 28.8317 66.4046 28.342 67.1419 27.3624C67.8792 26.3611 68.2479 24.9897 68.2479 23.2483ZM71.8569 23.3136C71.8569 24.685 71.6726 25.9258 71.3039 27.0359C70.9546 28.1243 70.4404 29.0603 69.7613 29.8439C69.1016 30.6276 68.2964 31.2262 67.3456 31.6398C66.3949 32.0534 65.318 32.2602 64.115 32.2602C62.9508 32.2602 61.8351 32.1622 60.7679 31.9663C59.7201 31.7704 58.847 31.5527 58.1484 31.3133V7.15108L61.6701 6.49805V15.3466C62.0776 15.1072 62.5724 14.8895 63.1545 14.6936C63.756 14.4977 64.4157 14.3997 65.1336 14.3997C66.2008 14.3997 67.1516 14.6174 67.9859 15.0528C68.8397 15.4664 69.5479 16.065 70.1106 16.8486C70.6733 17.6322 71.1002 18.5791 71.3912 19.6893C71.7017 20.7777 71.8569 21.9858 71.8569 23.3136Z" fill="#5A677D"/>
<path d="M74.6406 23.3785C74.6406 21.8765 74.8347 20.5596 75.2227 19.4276C75.6302 18.2957 76.1638 17.3597 76.8235 16.6196C77.4832 15.8577 78.2399 15.2918 79.0937 14.9217C79.9474 14.5299 80.8206 14.334 81.7131 14.334C83.8087 14.334 85.4386 15.0632 86.6028 16.5216C87.7864 17.9801 88.3782 20.1569 88.3782 23.052C88.3782 23.2696 88.3685 23.52 88.3491 23.8029C88.3491 24.0642 88.3394 24.3036 88.32 24.5213H78.2787C78.3758 25.8927 78.8026 26.9593 79.5594 27.7211C80.3355 28.4612 81.4512 28.8313 82.9064 28.8313C83.7602 28.8313 84.5363 28.7442 85.2348 28.5701C85.9528 28.3959 86.5155 28.2109 86.9229 28.015L87.3886 31.2475C87.1946 31.3563 86.9229 31.4761 86.5737 31.6067C86.2438 31.7155 85.8557 31.8135 85.4095 31.9005C84.9826 32.0094 84.5169 32.0965 84.0124 32.1618C83.5079 32.2271 82.9938 32.2597 82.4699 32.2597C81.131 32.2597 79.9668 32.042 78.9773 31.6067C77.9877 31.1496 77.1728 30.5292 76.5324 29.7455C75.8921 28.9401 75.4168 28.0041 75.1063 26.9375C74.7959 25.8491 74.6406 24.6628 74.6406 23.3785ZM84.8565 21.6153C84.8565 21.0711 84.7886 20.5596 84.6527 20.0807C84.5169 19.58 84.3132 19.1555 84.0415 18.8073C83.7893 18.4372 83.4691 18.1542 83.0811 17.9583C82.7124 17.7406 82.2661 17.6318 81.7422 17.6318C81.1989 17.6318 80.7236 17.7515 80.3161 17.991C79.9086 18.2086 79.5594 18.5025 79.2683 18.8726C78.9967 19.2426 78.7832 19.6671 78.628 20.146C78.4728 20.6249 78.3661 21.1146 78.3079 21.6153H84.8565Z" fill="#5A677D"/>
<path d="M100.759 18.3186C100.468 18.2097 100.061 18.1009 99.5368 17.9921C99.0323 17.8615 98.4405 17.7962 97.7614 17.7962C97.3733 17.7962 96.9562 17.8397 96.5099 17.9268C96.083 18.0138 95.7823 18.09 95.6076 18.1553V31.8363H92.0859V15.5758C92.7651 15.2929 93.6091 15.0317 94.6181 14.7922C95.6465 14.531 96.7815 14.4004 98.0234 14.4004C98.2562 14.4004 98.5278 14.4222 98.8383 14.4657C99.1487 14.4875 99.4592 14.531 99.7697 14.5963C100.08 14.6398 100.381 14.7051 100.672 14.7922C100.963 14.8575 101.196 14.9228 101.37 14.9881L100.759 18.3186Z" fill="#5A677D"/>
<path d="M103.621 10.2526L107.143 9.59961V14.7586H112.556V18.0564H107.143V25.0112C107.143 26.3825 107.337 27.3621 107.725 27.9498C108.113 28.5375 108.773 28.8314 109.704 28.8314C110.344 28.8314 110.907 28.7552 111.392 28.6028C111.897 28.4505 112.294 28.309 112.585 28.1784L113.168 31.3129C112.76 31.5088 112.226 31.7047 111.567 31.9007C110.907 32.1183 110.131 32.2272 109.238 32.2272C108.152 32.2272 107.24 32.0639 106.502 31.7374C105.785 31.4109 105.212 30.9429 104.785 30.3334C104.358 29.7021 104.058 28.9511 103.883 28.0804C103.708 27.1879 103.621 26.1757 103.621 25.0438V10.2526Z" fill="#5A677D"/>
<path d="M128.389 14.7578C126.818 21.2446 124.994 27.1219 122.918 32.3897C122.53 33.3692 122.132 34.2073 121.724 34.9039C121.317 35.6004 120.861 36.1773 120.356 36.6344C119.852 37.0915 119.289 37.418 118.668 37.6139C118.047 37.8316 117.33 37.9405 116.515 37.9405C115.971 37.9405 115.428 37.8752 114.885 37.7445C114.361 37.6139 113.963 37.4724 113.691 37.3201L114.332 34.1529C115.03 34.4576 115.719 34.61 116.398 34.61C117.31 34.61 118.018 34.3597 118.523 33.859C119.047 33.3801 119.503 32.6291 119.891 31.606C118.785 29.2116 117.718 26.5995 116.689 23.7697C115.68 20.9399 114.778 17.9359 113.982 14.7578H117.737C117.931 15.6721 118.164 16.6625 118.436 17.7291C118.727 18.7957 119.037 19.8841 119.367 20.9943C119.697 22.0827 120.046 23.171 120.415 24.2594C120.783 25.3478 121.152 26.36 121.521 27.296C122.142 25.3587 122.724 23.3016 123.267 21.1249C123.81 18.9263 124.305 16.804 124.751 14.7578H128.389Z" fill="#5A677D"/>
<path d="M141.181 23.3796C141.181 21.6164 140.823 20.245 140.105 19.2655C139.406 18.2859 138.271 17.7962 136.699 17.7962C136.369 17.7962 136.02 17.8179 135.652 17.8615C135.302 17.8832 134.953 17.9485 134.604 18.0574V27.8202C134.914 28.0596 135.322 28.2882 135.826 28.5059C136.35 28.7018 136.903 28.7997 137.485 28.7997C138.766 28.7997 139.697 28.31 140.279 27.3304C140.881 26.3509 141.181 25.0339 141.181 23.3796ZM144.79 23.3143C144.79 24.6203 144.635 25.8176 144.325 26.906C144.034 27.9943 143.607 28.9304 143.044 29.714C142.481 30.4976 141.773 31.1071 140.92 31.5425C140.085 31.9778 139.134 32.1955 138.067 32.1955C137.349 32.1955 136.69 32.0976 136.088 31.9016C135.487 31.7057 134.992 31.4881 134.604 31.2486V37.8769H131.082V15.3146C131.8 15.097 132.683 14.8902 133.731 14.6943C134.778 14.4983 135.884 14.4004 137.049 14.4004C138.252 14.4004 139.328 14.6072 140.279 15.0208C141.23 15.4344 142.035 16.033 142.695 16.8166C143.374 17.5785 143.888 18.5145 144.237 19.6246C144.606 20.713 144.79 21.9429 144.79 23.3143Z" fill="#2E3E5C"/>
<path d="M153.776 29.0599C154.863 29.0599 155.687 28.9946 156.25 28.864V24.4886C156.056 24.4233 155.774 24.358 155.406 24.2927C155.037 24.2274 154.63 24.1948 154.183 24.1948C153.795 24.1948 153.398 24.2274 152.99 24.2927C152.602 24.358 152.243 24.4777 151.913 24.6519C151.603 24.826 151.351 25.0764 151.156 25.4029C150.962 25.7076 150.865 26.0994 150.865 26.5783C150.865 27.5143 151.127 28.1674 151.651 28.5374C152.175 28.8857 152.883 29.0599 153.776 29.0599ZM153.485 14.334C154.649 14.334 155.629 14.4972 156.425 14.8238C157.22 15.1503 157.851 15.6074 158.316 16.1951C158.801 16.7829 159.141 17.5012 159.335 18.3501C159.548 19.1773 159.655 20.0916 159.655 21.0929V31.4434C159.112 31.574 158.287 31.7264 157.181 31.9005C156.095 32.0965 154.863 32.1944 153.485 32.1944C152.573 32.1944 151.739 32.0965 150.982 31.9005C150.225 31.7046 149.575 31.389 149.032 30.9537C148.508 30.5183 148.091 29.9523 147.78 29.2558C147.489 28.5592 147.344 27.6994 147.344 26.6763C147.344 25.6967 147.509 24.8696 147.839 24.1948C148.188 23.52 148.653 22.9758 149.236 22.5622C149.818 22.1268 150.487 21.8221 151.244 21.6479C152.02 21.452 152.825 21.3541 153.66 21.3541C154.048 21.3541 154.455 21.3867 154.882 21.452C155.309 21.4956 155.765 21.5826 156.25 21.7132V21.0602C156.25 20.6031 156.201 20.1677 156.104 19.7542C156.007 19.3406 155.833 18.9814 155.58 18.6766C155.348 18.3501 155.027 18.0998 154.62 17.9257C154.232 17.7515 153.737 17.6644 153.136 17.6644C152.321 17.6644 151.574 17.7298 150.895 17.8604C150.215 17.991 149.662 18.1433 149.236 18.3175L148.799 15.1176C149.245 14.9435 149.895 14.7693 150.749 14.5952C151.603 14.4211 152.515 14.334 153.485 14.334Z" fill="#2E3E5C"/>
<path d="M175.968 14.7578C174.396 21.2446 172.572 27.1219 170.496 32.3897C170.108 33.3692 169.71 34.2073 169.302 34.9039C168.895 35.6004 168.439 36.1773 167.935 36.6344C167.43 37.0915 166.867 37.418 166.246 37.6139C165.626 37.8316 164.908 37.9405 164.093 37.9405C163.549 37.9405 163.006 37.8752 162.463 37.7445C161.939 37.6139 161.541 37.4724 161.27 37.3201L161.91 34.1529C162.608 34.4576 163.297 34.61 163.976 34.61C164.888 34.61 165.596 34.3597 166.101 33.859C166.625 33.3801 167.081 32.6291 167.469 31.606C166.363 29.2116 165.296 26.5995 164.267 23.7697C163.258 20.9399 162.356 17.9359 161.561 14.7578H165.315C165.509 15.6721 165.742 16.6625 166.014 17.7291C166.305 18.7957 166.615 19.8841 166.945 20.9943C167.275 22.0827 167.624 23.171 167.993 24.2594C168.361 25.3478 168.73 26.36 169.099 27.296C169.72 25.3587 170.302 23.3016 170.845 21.1249C171.388 18.9263 171.883 16.804 172.329 14.7578H175.968Z" fill="#2E3E5C"/>
</g>
<defs>
<clipPath id="clip0_1161_10202">
<rect width="176" height="42.31" fill="white" transform="translate(0.439453 0.230469)"/>
</clipPath>
</defs>
</svg>
