<svg width="70" height="70" viewBox="0 0 70 70" fill="none" xmlns="http://www.w3.org/2000/svg">
<rect width="70" height="70" rx="15" fill="#4241C2"/>
<path d="M16.103 37.2397C14.7696 37.2397 13.4768 36.8204 12.6352 36.399L12 38.9224C12.7793 39.343 14.3394 39.7432 15.919 39.7432C19.7149 39.7432 21.4995 37.8208 21.4995 35.5577C21.4995 33.6551 20.3501 32.4136 17.9093 31.532C16.124 30.8702 15.3446 30.4905 15.3446 29.6294C15.3446 28.928 16.0008 28.3271 17.3552 28.3271C18.7096 28.3271 19.6946 28.7081 20.2479 28.9683L20.9461 26.5051C20.1248 26.1445 18.9761 25.8242 17.4168 25.8242C14.1547 25.8242 12.1847 27.5861 12.1847 29.8896C12.1847 31.8522 13.6825 33.0938 15.9806 33.875C17.642 34.4562 18.2989 34.9369 18.2989 35.7769C18.2989 36.6585 17.5392 37.2397 16.103 37.2397Z" fill="white"/>
<path d="M32.4356 37.0404H26.7529V33.8362H31.8402V31.3525H26.7529V28.5485H32.1487V26.0449H23.6133V39.5439H32.4356V37.0404Z" fill="white"/>
<path d="M43.0082 40.5682C44.9495 40.5682 46.7285 39.886 48.1136 38.7565L50.8678 41.2655C50.8636 41.5455 50.9679 41.8227 51.1931 42.0283L55.2345 45.7119C55.4367 45.8963 55.6927 45.9871 55.9495 45.9871C56.23 45.9871 56.5105 45.8778 56.7169 45.6607C57.1122 45.2482 57.0891 44.5981 56.6665 44.2129L52.6251 40.53C52.3999 40.3244 52.1075 40.2432 51.8234 40.2657L49.1056 37.7902C50.2746 36.436 50.9832 34.6891 50.9832 32.7831C50.9832 28.491 47.407 25 43.0102 25C38.6135 25 35.0352 28.4924 35.0352 32.7838C35.0345 37.0765 38.6114 40.5682 43.0082 40.5682Z" fill="white"/>
</svg>
