<svg width="70" height="70" viewBox="0 0 70 70" fill="none" xmlns="http://www.w3.org/2000/svg">
<rect width="70" height="70" rx="15" fill="#4241C2"/>
<path d="M43.4502 21.8057L42.5479 22.6963L35.6455 29.5635L27.1963 21.1143C26.9854 20.915 26.6572 20.915 26.4463 21.1143L22.0049 25.5557C21.8057 25.7549 21.8057 26.0947 22.0049 26.3057L23.0479 27.3486L23.833 26.5635L24.1611 26.8916L23.376 27.6768L24.4307 28.7314L26.0713 27.0908L26.3994 27.4189L24.7588 29.0596L25.8135 30.1143L26.5986 29.3291L26.9268 29.6572L26.1416 30.4424L27.1963 31.4971L28.8252 29.8564L29.1533 30.1846L27.5127 31.8135L28.5674 32.8682L29.3525 32.083L29.6807 32.4111L28.8955 33.1963L29.9502 34.251L31.5908 32.6221L32.1182 33.1494L22.5908 42.6768C22.3564 42.9111 22.2275 43.2275 22.2275 43.5439C22.2275 43.5439 22.04 47.6924 22.1924 47.8447C22.3447 47.9971 26.5166 47.833 26.5166 47.833C26.833 47.833 27.1494 47.7158 27.3838 47.4814L36.9111 37.9541L37.4268 38.4697L35.7979 40.0986L37.04 41.3408L37.8252 40.5557L38.1533 40.8838L37.3682 41.6689L38.4229 42.7236L40.0518 41.083L40.3799 41.4111L38.751 43.04L39.8057 44.0947L40.5908 43.3096L40.9189 43.6377L40.1338 44.4229L41.1885 45.4775L42.8174 43.8486L43.1455 44.1768L41.5166 45.8057L42.5713 46.8603L43.3564 46.0752L43.6846 46.4033L42.8994 47.1885L43.9424 48.2314C44.1533 48.4424 44.4814 48.4424 44.6924 48.2314L49.1338 43.79C49.3447 43.5791 49.3447 43.251 49.1338 43.04L40.4971 34.4033L47.3877 27.5361L48.3018 26.6221C49.0752 25.8486 49.0752 24.6064 48.3018 23.833L46.3096 21.8408C45.4775 21.0322 44.2236 21.0322 43.4502 21.8057ZM43.3213 26.7041L25.2744 44.7275C24.8525 44.3525 23.9971 43.5088 23.6221 43.0752L41.669 25.0518L43.3213 26.7041Z" fill="white"/>
</svg>
