<svg width="71" height="64" viewBox="0 0 71 64" fill="none" xmlns="http://www.w3.org/2000/svg">
<path d="M66.5722 0.458496H3.48882C1.56515 0.458496 0 2.02365 0 3.94731V60.053C0 61.9768 1.56515 63.5418 3.48882 63.5418H66.5722C68.4958 63.5418 70.061 61.9768 70.061 60.053V3.94731C70.061 2.02365 68.4958 0.458496 66.5722 0.458496ZM58.0993 7.50729C60.2622 7.50729 62.0153 9.26059 62.0153 11.4233C62.0153 13.5862 60.2622 15.3393 58.0993 15.3393C55.9366 15.3393 54.1833 13.5862 54.1833 11.4233C54.1834 9.26059 55.9366 7.50729 58.0993 7.50729ZM45.7105 7.50729C47.8733 7.50729 49.6266 9.26059 49.6266 11.4233C49.6266 13.5862 47.8733 15.3393 45.7105 15.3393C43.5478 15.3393 41.7945 13.5862 41.7945 11.4233C41.7945 9.26059 43.5478 7.50729 45.7105 7.50729ZM33.3217 7.50729C35.4845 7.50729 37.2377 9.26059 37.2377 11.4233C37.2377 13.5862 35.4845 15.3393 33.3217 15.3393C31.1589 15.3393 29.4056 13.5862 29.4056 11.4233C29.4056 9.26059 31.1589 7.50729 33.3217 7.50729ZM64.2225 57.7035H5.83846V20.8929H64.2225V57.7035Z" fill="white"/>
<path d="M42.9339 27.0405H11.9619V33.2817H42.9339V27.0405Z" fill="white"/>
<path d="M58.0995 39.5718H11.9619V45.813H58.0995V39.5718Z" fill="white"/>
</svg>
